<svg xmlns="http://www.w3.org/2000/svg" xmlns:xlink="http://www.w3.org/1999/xlink" width="14" height="14" viewBox="0 0 14 14">
  <defs>
    <clipPath id="clip-path">
      <path id="icon_navigation_cancel_24px" data-name="icon/navigation/cancel_24px" d="M7,14A7,7,0,0,1,2.048,2.048a7,7,0,0,1,9.9,9.9A6.958,6.958,0,0,1,7,14ZM7,1.4A5.6,5.6,0,1,0,12.6,7,5.606,5.606,0,0,0,7,1.4ZM4.486,10.5h0L3.5,9.513,6.013,7,3.5,4.487,4.487,3.5,7,6.013,9.513,3.5l.987.987L7.987,7,10.5,9.513l-.987.987L7,7.987,4.487,10.5Z" transform="translate(2 2)" fill="none"/>
    </clipPath>
  </defs>
  <g id="Groupe_6157" data-name="Groupe 6157" transform="translate(-2 -2)" clip-path="url(#clip-path)">
    <g id="_Color" data-name="↳ Color" transform="translate(0.6 0.6)">
      <rect id="_Color_background" data-name="↳ Color background" width="16.8" height="16.8" fill="#b10b0b"/>
      <rect id="Rectangle" width="16.8" height="16.8" fill="#b10b0b"/>
    </g>
  </g>
</svg>
